# xmcd
# 
# Track frame offsets:
#     150
#     10203
#     24475
#     38275
#     50965
#     65200
#     75573
#     87565
#     102115
#     111888
#     125485
#     137338
#     151200
#     163620
#     179115
#     192653
#     206438
#     221028
#     231518
#     248385
#     262340
#     277658
#     291605
#     305868
#     322860
# 
# Disc length: 4476
# 
# Revision: 3
# Processed by: cddbd v1.5.2PL0 Copyright (c) Steve Scherf et al.
# Submitted via: fre:ac v1.0.27
# 
DISCID=74117a19
DTITLE=Various Artist - 続々々・テレビまんが主題歌のあゆみ DISC2
DYEAR=1989
DGENRE=Anime
TTITLE0=怪物くん/ユカイツーカイ怪物くん
TTITLE1=とんでも戦士ムテキング/ローラーヒーロー・ムテキング
TTITLE2=おじゃまんが山田くん/おじゃまんが山田くん
TTITLE3=百獣王ゴウライオン/斗え!ゴライオン
TTITLE4=ハロー！サンディベル/ハロー！サンディベル
TTITLE5=名犬ジョリィ/走れ!ジョリィ
TTITLE6=Dr.スランプアラレちゃん/ワイワイワールド
TTITLE7=タイガーマスク二世/タイガーマスク二世
TTITLE8=忍者ハットリくん/忍者ハットリくん
TTITLE9=ダッシュ勝平/見たいもの見たい
TTITLE10=あさりちゃん/あの子はあさりちゃん
TTITLE11=機甲艦隊ダイラガーXV/銀河の青春
TTITLE12=ゲームセンターあらし/ゲームセンターあらし
TTITLE13=ドン・ドラキュラ/パラダイスドラキュラ
TTITLE14=科学救助隊テクノボイジャー/テクノボイジャー
TTITLE15=Theかぼちゃワイン/Ｌはラブリー
TTITLE16=わた青春のｱﾙｶﾃﾞｨｱ無限軌道ＳＳＸ/おれたちの船出
TTITLE17=フクちゃん/ぼく、クちゃんだい！
TTITLE18=未来警察ウラシマン/ミッドナイト・サブマリン
TTITLE19=キャプテン/君は何かができる
TTITLE20=愛してナイト/恋は突然
TTITLE21=光速電神アルベガス/光速電神アルベガス
TTITLE22=キン肉マン/キン肉マンGo Fight！
TTITLE23=ムーミンいろいろ夢の旅/ポケット宇宙
TTITLE24=パーマン/きてよパーマン
EXTD=YEAR: 1989
EXTT0=
EXTT1=
EXTT2=
EXTT3=
EXTT4=
EXTT5=
EXTT6=
EXTT7=
EXTT8=
EXTT9=
EXTT10=
EXTT11=
EXTT12=
EXTT13=
EXTT14=
EXTT15=
EXTT16=
EXTT17=
EXTT18=
EXTT19=
EXTT20=
EXTT21=
EXTT22=
EXTT23=
EXTT24=
PLAYORDER=
